<svg width="220" height="72" viewBox="0 0 220 72" version="1.1" xmlns="http://www.w3.org/2000/svg"><title>ecg-logo-large</title><desc>Created with Sketch.</desc><g stroke="none" stroke-width="1" fill="none" fill-rule="evenodd"><g><g><g><path d="M77.293 24.32c0-9.375 1.906-17.824 4.958-23.776H.425v47.552H82.25c-3.05-5.955-4.957-14.402-4.957-23.777" fill="#DC1E1E"/><path d="M90.44 9.855h3.846l2.656 7.535h.03l2.673-7.535h3.827v11.547h-2.54v-8.856h-.032l-3.03 8.856h-1.938l-2.918-8.856h-.03v8.856H90.44V9.855" fill="#455560"/><path d="M110.427 9.855h2.1l5.02 11.547h-2.868l-.996-2.446h-4.478l-.96 2.446h-2.803l4.984-11.547zm.978 3.36l-1.402 3.587h2.818l-1.415-3.588z" fill="#455560"/><path d="M119.19 9.855h3.452l4.904 8.024h.03V9.854h2.543v11.547h-3.323l-5.034-8.22h-.035v8.22h-2.538V9.855" fill="#455560"/><path d="M136.586 9.855h2.102l5.013 11.547h-2.865l-.994-2.446h-4.478l-.96 2.446h-2.8l4.984-11.547zm.976 3.36L136.16 16.8h2.82l-1.418-3.588z" fill="#455560"/><path d="M155.463 20.587c-1.5.782-3.146 1.11-4.84 1.11-3.596 0-6.22-2.366-6.22-6.068 0-3.702 2.624-6.068 6.22-6.068 1.827 0 3.44.407 4.594 1.484l-1.79 1.958c-.684-.72-1.515-1.095-2.803-1.095-2.167 0-3.58 1.566-3.58 3.72 0 2.15 1.413 3.716 3.58 3.716 1.108 0 1.923-.31 2.394-.57v-1.874h-2.067v-2.35h4.513v6.035" fill="#455560"/><path d="M158.604 9.855h7.837v2.348h-5.293v2.153h5v2.35h-5v2.35h5.586V21.4h-8.13V9.855" fill="#455560"/><path d="M170.072 9.855h3.843l2.655 7.535h.035l2.67-7.535h3.827v11.547h-2.54v-8.856h-.032l-3.028 8.856h-1.942l-2.912-8.856h-.035v8.856h-2.54V9.855" fill="#455560"/><path d="M186.522 9.855h7.836v2.348h-5.295v2.153h5v2.35h-5v2.35h5.588V21.4h-8.128V9.855" fill="#455560"/><path d="M197.826 9.855h3.453l4.903 8.024h.03V9.854h2.543v11.547h-3.322l-5.034-8.22h-.033v8.22h-2.54V9.855" fill="#455560"/><path d="M213.986 12.105h-3.292v-2.25h9.12v2.25h-3.29v9.297h-2.538v-9.297" fill="#455560"/><path d="M97.52 31.168c-.567-.737-1.5-1.148-2.423-1.148-2.252 0-3.74 1.802-3.74 4.084 0 2.113 1.403 3.914 3.74 3.914 1.148 0 2.026-.512 2.62-1.35l1.148.868c-.298.41-1.503 1.757-3.796 1.757-3.187 0-5.158-2.665-5.158-5.19 0-3.12 2.14-5.36 5.23-5.36 1.315 0 2.703.498 3.51 1.56l-1.133.865" fill="#455560"/><path d="M102.292 34.02c0-2.98 2.167-5.276 5.228-5.276 3.058 0 5.225 2.296 5.225 5.275 0 2.978-2.167 5.273-5.225 5.273-3.06 0-5.228-2.295-5.228-5.274zm9.007 0c0-2.198-1.488-4-3.78-4-2.295 0-3.782 1.802-3.782 4 0 2.197 1.487 3.998 3.782 3.998 2.292 0 3.78-1.8 3.78-4z" fill="#455560"/><path d="M117.106 28.998h1.785l5.525 8.254h.028v-8.254h1.36V39.04h-1.728l-5.58-8.256h-.028v8.256h-1.36V28.998" fill="#455560"/><path d="M131.652 36.94c.482.737 1.317 1.078 2.123 1.078.894 0 2-.566 2-1.673 0-2.312-4.946-.88-4.946-4.793 0-1.177.992-2.808 3.4-2.808 1.09 0 2.138.227 2.89 1.15l-1.105 1.006c-.34-.525-1.005-.88-1.785-.88-1.504 0-1.956.908-1.956 1.532 0 2.537 4.945 1.02 4.945 4.637 0 1.943-1.56 3.103-3.485 3.103-1.29 0-2.522-.437-3.2-1.39l1.117-.963" fill="#455560"/><path d="M143.097 28.998v6.153c0 1.252.622 2.868 2.52 2.868 1.9 0 2.522-1.616 2.522-2.867V29h1.36v6.37c0 2.323-1.687 3.925-3.884 3.925-2.193 0-3.88-1.602-3.88-3.926v-6.37h1.36" fill="#455560"/><path d="M154.58 28.998h1.363v8.763h4.6v1.28h-5.962V28.998" fill="#455560"/><path d="M166.156 30.277h-3.23v-1.28h7.816v1.28h-3.228v8.763h-1.358v-8.763" fill="#455560"/><path d="M177.174 28.998h1.23l4.294 10.042h-1.59l-1.002-2.482h-4.773l-.993 2.482h-1.586l4.42-10.042zm2.436 6.37l-1.87-4.61h-.03l-1.898 4.61h3.798z" fill="#455560"/><path d="M186.832 28.998h1.785l5.523 8.254h.03v-8.254h1.36V39.04h-1.73l-5.58-8.256h-.03v8.256h-1.358V28.998" fill="#455560"/><path d="M203.177 30.277h-3.23v-1.28h7.82v1.28h-3.23v8.763h-1.36v-8.763" fill="#455560"/><path d="M212.2 36.94c.48.737 1.316 1.078 2.124 1.078.892 0 1.995-.566 1.995-1.673 0-2.312-4.943-.88-4.943-4.793 0-1.177.992-2.808 3.4-2.808 1.09 0 2.136.227 2.89 1.15L216.56 30.9c-.338-.525-1.006-.88-1.783-.88-1.503 0-1.955.908-1.955 1.532 0 2.537 4.943 1.02 4.943 4.637 0 1.943-1.557 3.103-3.485 3.103-1.287 0-2.522-.437-3.2-1.39l1.12-.963" fill="#455560"/><path d="M59.346 22.557v3.538h7.023v8.833c-.305.17-.61.33-.922.472-1.466.664-3.04.995-4.72.995-1.22 0-2.377-.242-3.473-.72-1.097-.482-2.055-1.225-2.878-2.23-.787-.96-1.43-2.208-1.93-3.74-.498-1.532-.746-3.36-.746-5.49 0-2.033.227-3.825.68-5.377.45-1.553 1.08-2.838 1.89-3.855.834-1.043 1.782-1.812 2.843-2.307 1.062-.495 2.256-.742 3.583-.742 1.618 0 3.14.318 4.56.955 1.416.637 2.85 1.653 4.293 3.05h.263v-4.78c-1.716-.99-3.27-1.68-4.674-2.073-1.405-.393-2.81-.59-4.217-.59-1.926 0-3.675.348-5.25 1.038-1.585.69-2.928 1.693-4.044 3.01-1.15 1.353-2.03 3.016-2.64 4.98-.61 1.967-.914 4.196-.914 6.69 0 2.63.317 4.94.95 6.926.634 1.988 1.513 3.623 2.64 4.908 1.15 1.317 2.503 2.283 4.057 2.9 1.554.617 3.283.924 5.183.924 1.008 0 1.934-.09 2.772-.275.84-.18 1.618-.402 2.332-.66.846-.31 1.53-.61 2.05-.896.524-.28 1.107-.588 1.753-.912v-1.816h.006V22.557H59.345zm-26.5-7.574c.833-1.043 1.78-1.812 2.843-2.308 1.06-.494 2.254-.74 3.58-.74 1.62 0 3.14.317 4.56.954.652.293 1.308.68 1.966 1.137.485-1.108 1.053-2.108 1.714-2.987.07-.09.14-.17.207-.255-1.452-.79-2.786-1.357-4.003-1.698-1.402-.393-2.806-.59-4.215-.59-1.927 0-3.68.348-5.255 1.038-1.578.69-2.925 1.693-4.04 3.01-1.15 1.353-2.03 3.016-2.64 4.98-.61 1.966-.915 4.196-.915 6.69 0 2.63.318 4.94.95 6.926.635 1.988 1.514 3.623 2.64 4.908 1.15 1.317 2.503 2.283 4.057 2.9 1.554.617 3.285.924 5.184.924 1.01 0 1.936-.09 2.774-.275.837-.18 1.617-.402 2.333-.66.843-.31 1.527-.61 2.05-.896.285-.153.59-.316.912-.484-.002 0-.002 0-.004-.003-.693-.892-1.29-1.934-1.797-3.125-.56.38-1.136.704-1.73.972-1.463.664-3.036.995-4.714.995-1.222 0-2.38-.242-3.476-.72-1.098-.482-2.057-1.225-2.88-2.23-.783-.96-1.427-2.208-1.925-3.74-.5-1.532-.748-3.36-.748-5.49 0-2.033.223-3.825.677-5.377.452-1.553 1.08-2.838 1.892-3.855zM26.05 37.43c-.39-.492-.743-1.035-1.07-1.62-.018-.02-.035-.043-.052-.068H12.644v-9.635h9.96c-.03-.614-.046-1.24-.046-1.888 0-.578.016-1.14.042-1.69h-9.956v-9.906h12.42c.296-.507.61-.987.95-1.437.626-.826 1.328-1.537 2.102-2.14H9.013v30.278h18.892c-.67-.536-1.287-1.167-1.856-1.894z" fill="#fff"/><path d="M.424 63.175H1.85v6.732H5.26v1.29H.424v-8.022" fill="#91A1AA"/><path d="M7.43 63.175h5.307v1.29H8.855v1.973h3.678v1.293H8.855v2.177h4.086v1.29H7.43v-8.022" fill="#91A1AA"/><path d="M18.067 63.175h1.235l3.45 8.023h-1.628l-.747-1.835H16.9l-.723 1.835H14.58l3.487-8.023zm1.812 4.963l-1.235-3.264-1.256 3.264h2.49z" fill="#91A1AA"/><path d="M24.777 63.175h3.158c2.106 0 4.076 1.29 4.076 4.012 0 2.743-2.32 4.01-4.246 4.01h-2.987v-8.022zm2.49 6.732c1.79 0 3.25-.772 3.25-2.72 0-1.95-1.27-2.72-3.013-2.72h-1.3v5.44h1.063z" fill="#91A1AA"/><path d="M34.464 63.175h1.425v8.023h-1.426v-8.023z" fill="#91A1AA"/><path d="M38.775 63.175h1.89l3.883 5.96.023.024h-.022l.023-.025v-5.96h1.426v8.023h-1.81l-3.962-6.154H40.2v6.154h-1.425v-8.023" fill="#91A1AA"/><path d="M56.034 70.61c-.973.52-2.083.793-3.316.793-2.468 0-4.233-1.677-4.233-4.182 0-2.57 1.765-4.25 4.233-4.25 1.222 0 2.32.26 3.158 1.01l-1.053 1.064c-.51-.498-1.29-.782-2.094-.782-1.653 0-2.753 1.27-2.753 2.867 0 1.71 1.1 2.98 2.752 2.98.724 0 1.38-.136 1.878-.42V67.8h-1.642v-1.292h3.068v4.103" fill="#91A1AA"/><path d="M65.368 63.175h1.427v3.196h3.746v-3.195h1.427v8.023H70.54v-3.535h-3.745v3.535h-1.427v-8.023" fill="#91A1AA"/><path d="M74.884 63.175h5.31v1.29H76.31v1.973h3.68v1.293h-3.68v2.177H80.4v1.29h-5.514v-8.022" fill="#91A1AA"/><path d="M85.523 63.175h1.234l3.453 8.023h-1.63l-.747-1.835h-3.475l-.725 1.835h-1.596l3.486-8.023zm1.813 4.963L86.1 64.874l-1.256 3.264h2.492z" fill="#91A1AA"/><path d="M92.232 63.175h1.427v6.732h3.406v1.29h-4.834v-8.022" fill="#91A1AA"/><path d="M99.84 64.466h-2.457v-1.29h6.34v1.29h-2.457v6.732H99.84v-6.732" fill="#91A1AA"/><path d="M105.826 63.175h1.426v3.196H111v-3.195h1.425v8.023H111v-3.535h-3.748v3.535h-1.426v-8.023" fill="#91A1AA"/><path d="M120.845 65.055c-.59-.624-1.132-.793-1.687-.793-1.653 0-2.75 1.27-2.75 2.867 0 1.71 1.097 2.98 2.75 2.98.646 0 1.267-.295 1.8-.975l1.176.84c-.724.997-1.81 1.428-2.987 1.428-2.468 0-4.234-1.677-4.234-4.182 0-2.57 1.766-4.25 4.234-4.25 1.086 0 2.014.352 2.807 1.27l-1.11.815" fill="#91A1AA"/><path d="M126.82 63.175h1.233l3.453 8.023h-1.63l-.748-1.835h-3.474l-.725 1.835h-1.597l3.486-8.023zm1.81 4.963l-1.234-3.264-1.257 3.264h2.49z" fill="#91A1AA"/><path d="M133.528 63.175h2.785c1.54 0 2.988.5 2.988 2.3 0 1.157-.666 2.005-1.855 2.177l2.128 3.546h-1.72l-1.857-3.4h-1.042v3.4h-1.426v-8.023zm2.536 3.4c.804 0 1.743-.07 1.743-1.11 0-.954-.882-1.066-1.618-1.066h-1.236v2.175h1.11z" fill="#91A1AA"/><path d="M141.79 63.175h5.308v1.29h-3.883v1.973h3.68v1.293h-3.68v2.177h4.086v1.29h-5.51v-8.022" fill="#91A1AA"/><path d="M156.24 63.175h5.172v1.29h-3.746v2.11h3.532v1.292h-3.532v3.33h-1.425v-8.022" fill="#91A1AA"/><path d="M167.67 62.97c2.502-.045 4.268 1.632 4.268 4.205 0 2.505-1.766 4.182-4.268 4.228-2.467 0-4.233-1.677-4.233-4.182 0-2.57 1.766-4.25 4.233-4.25zm.012 7.14c1.664 0 2.762-1.27 2.762-2.98 0-1.598-1.098-2.868-2.762-2.868-1.652 0-2.75 1.27-2.75 2.867 0 1.71 1.098 2.98 2.75 2.98z" fill="#91A1AA"/><path d="M174.426 63.175h2.784c1.54 0 2.99.5 2.99 2.3 0 1.157-.67 2.005-1.858 2.177l2.128 3.546h-1.72l-1.857-3.4h-1.04v3.4h-1.427v-8.023zm2.534 3.4c.804 0 1.744-.07 1.744-1.11 0-.954-.883-1.066-1.62-1.066h-1.232v2.175h1.108z" fill="#91A1AA"/><path d="M181.793 63.175h1.56l1.507 5.78h.023l1.8-5.78h1.402l1.766 5.78h.024l1.573-5.78h1.45l-2.333 8.023h-1.357l-1.857-6.11h-.022l-1.857 6.11h-1.312l-2.365-8.023" fill="#91A1AA"/><path d="M197.23 63.175h1.233l3.453 8.023h-1.63l-.747-1.835h-3.476l-.724 1.835h-1.597l3.487-8.023zm1.81 4.963l-1.233-3.264-1.256 3.264h2.49z" fill="#91A1AA"/><path d="M203.94 63.175h2.784c1.54 0 2.988.5 2.988 2.3 0 1.157-.668 2.005-1.856 2.177l2.128 3.546h-1.72l-1.857-3.4h-1.042v3.4h-1.426v-8.023zm2.535 3.4c.803 0 1.743-.07 1.743-1.11 0-.954-.883-1.066-1.618-1.066h-1.235v2.175h1.11z" fill="#91A1AA"/><path d="M212.2 63.175h3.16c2.104 0 4.073 1.29 4.073 4.012 0 2.743-2.32 4.01-4.246 4.01H212.2v-8.022zm2.49 6.732c1.79 0 3.25-.772 3.25-2.72 0-1.95-1.27-2.72-3.013-2.72h-1.302v5.44h1.065z" fill="#91A1AA"/></g></g></g></g></svg>